# 3ds Max Wavefront OBJ Exporter v0.97b - (c)2007 guruware
# File Created: 21.05.2013 17:30:37

mtllib arc_lp.mtl

#
# object default
#

v  -0.0000 0.1160 0.0171
v  0.0049 0.1118 0.0171
v  0.0049 0.1118 0.0139
v  -0.0000 0.1160 0.0139
v  0.0094 0.1064 0.0139
v  0.0094 0.1064 0.0171
v  0.0192 0.0876 0.0139
v  0.0145 0.0981 0.0139
v  0.0145 0.0981 0.0171
v  0.0192 0.0876 0.0171
v  0.0243 0.0710 0.0139
v  0.0214 0.0820 0.0139
v  0.0214 0.0820 0.0171
v  0.0243 0.0710 0.0171
v  0.0265 0.0625 0.0171
v  0.0265 0.0625 0.0139
v  0.0283 0.0524 0.0171
v  0.0283 0.0524 0.0139
v  0.0303 0.0392 0.0171
v  0.0303 0.0392 0.0139
v  0.0319 0.0262 0.0171
v  0.0319 0.0262 0.0139
v  0.0330 0.0116 0.0171
v  0.0330 0.0116 0.0139
v  0.0334 0.0004 0.0171
v  0.0334 0.0004 0.0139
v  0.0265 0.0004 0.0171
v  0.0265 0.0004 0.0139
v  0.0260 0.0139 0.0139
v  0.0260 0.0139 0.0171
v  0.0251 0.0252 0.0139
v  0.0251 0.0252 0.0171
v  0.0238 0.0372 0.0139
v  0.0238 0.0372 0.0171
v  0.0221 0.0481 0.0171
v  0.0221 0.0481 0.0139
v  0.0202 0.0577 0.0139
v  0.0202 0.0577 0.0171
v  0.0179 0.0669 0.0139
v  0.0179 0.0669 0.0171
v  0.0154 0.0753 0.0139
v  0.0154 0.0753 0.0171
v  0.0131 0.0812 0.0139
v  0.0131 0.0812 0.0171
v  0.0097 0.0885 0.0139
v  0.0097 0.0885 0.0171
v  0.0064 0.0940 0.0139
v  0.0064 0.0940 0.0171
v  0.0037 0.0976 0.0139
v  0.0037 0.0976 0.0171
v  0.0001 0.1014 0.0139
v  0.0001 0.1014 0.0171
v  -0.0031 0.0985 0.0171
v  -0.0031 0.0985 0.0139
v  -0.0061 0.0945 0.0171
v  -0.0061 0.0945 0.0139
v  -0.0102 0.0878 0.0171
v  -0.0102 0.0878 0.0139
v  -0.0125 0.0830 0.0171
v  -0.0125 0.0830 0.0139
v  -0.0148 0.0774 0.0171
v  -0.0148 0.0774 0.0139
v  -0.0176 0.0685 0.0171
v  -0.0176 0.0685 0.0139
v  -0.0199 0.0601 0.0171
v  -0.0199 0.0601 0.0139
v  -0.0216 0.0505 0.0171
v  -0.0216 0.0505 0.0139
v  -0.0238 0.0390 0.0171
v  -0.0238 0.0390 0.0139
v  -0.0253 0.0253 0.0171
v  -0.0253 0.0253 0.0139
v  -0.0261 0.0123 0.0171
v  -0.0261 0.0123 0.0139
v  -0.0265 0.0004 0.0171
v  -0.0265 0.0004 0.0139
v  -0.0334 0.0004 0.0171
v  -0.0334 0.0004 0.0139
v  -0.0328 0.0126 0.0139
v  -0.0328 0.0126 0.0171
v  -0.0318 0.0255 0.0139
v  -0.0318 0.0255 0.0171
v  -0.0303 0.0394 0.0139
v  -0.0303 0.0394 0.0171
v  -0.0284 0.0516 0.0139
v  -0.0284 0.0516 0.0171
v  -0.0267 0.0615 0.0139
v  -0.0267 0.0615 0.0171
v  -0.0247 0.0701 0.0139
v  -0.0247 0.0701 0.0171
v  -0.0218 0.0804 0.0139
v  -0.0218 0.0804 0.0171
v  -0.0199 0.0859 0.0139
v  -0.0199 0.0859 0.0171
v  -0.0153 0.0963 0.0139
v  -0.0153 0.0963 0.0171
v  -0.0103 0.1051 0.0139
v  -0.0103 0.1051 0.0171
v  -0.0052 0.1113 0.0139
v  -0.0052 0.1113 0.0171
# 100 vertices

vn -0.0104 0.8108 0.5852
vn 0.5171 0.5097 0.6876
vn 0.5169 0.5096 -0.6878
vn -0.0104 0.8111 -0.5848
vn 0.5857 0.4211 -0.6925
vn 0.5855 0.4212 0.6927
vn 0.6589 0.2741 -0.7006
vn 0.6365 0.3399 -0.6923
vn 0.6365 0.3400 0.6923
vn 0.6592 0.2736 0.7005
vn 0.6861 0.1770 -0.7056
vn 0.6827 0.2207 -0.6966
vn 0.6848 0.2205 0.6946
vn 0.6859 0.1775 0.7057
vn 0.6986 0.1515 0.6993
vn 0.6978 0.1515 -0.7001
vn 0.7010 0.1168 0.7035
vn 0.7006 0.1167 -0.7040
vn 0.7037 0.0970 0.7038
vn 0.7031 0.0969 -0.7044
vn 0.7097 0.0695 0.7011
vn 0.7092 0.0695 -0.7015
vn 0.7095 0.0403 0.7035
vn 0.7090 0.0404 -0.7040
vn 0.5897 -0.5674 0.5748
vn 0.5893 -0.5672 -0.5753
vn -0.5653 -0.5867 0.5798
vn -0.5656 -0.5867 -0.5796
vn -0.7027 -0.0395 -0.7104
vn -0.7020 -0.0396 0.7110
vn -0.7002 -0.0637 -0.7111
vn -0.6998 -0.0637 0.7115
vn -0.6952 -0.0944 -0.7126
vn -0.6945 -0.0943 0.7133
vn -0.6932 -0.1220 0.7103
vn -0.6936 -0.1222 -0.7099
vn -0.6844 -0.1507 -0.7134
vn -0.6837 -0.1506 0.7141
vn -0.6763 -0.1875 -0.7124
vn -0.6761 -0.1872 0.7127
vn -0.6624 -0.2256 -0.7143
vn -0.6614 -0.2252 0.7154
vn -0.6412 -0.2749 -0.7164
vn -0.6406 -0.2748 0.7171
vn -0.6140 -0.3291 -0.7174
vn -0.6144 -0.3287 0.7173
vn -0.5817 -0.3830 -0.7176
vn -0.5818 -0.3832 0.7174
vn -0.5293 -0.4438 -0.7231
vn -0.5290 -0.4439 0.7233
vn -0.0104 -0.4296 -0.9029
vn -0.0103 -0.4296 0.9030
vn 0.5109 -0.4601 0.7262
vn 0.5105 -0.4603 -0.7263
vn 0.5739 -0.3924 0.7188
vn 0.5739 -0.3928 -0.7186
vn 0.6103 -0.3335 0.7185
vn 0.6107 -0.3334 -0.7182
vn 0.6403 -0.2820 0.7145
vn 0.6392 -0.2833 -0.7150
vn 0.6566 -0.2361 0.7164
vn 0.6583 -0.2386 -0.7140
vn 0.6723 -0.1987 0.7131
vn 0.6741 -0.1995 -0.7112
vn 0.6787 -0.1521 0.7185
vn 0.6812 -0.1530 -0.7160
vn 0.6952 -0.1264 0.7076
vn 0.6980 -0.1272 -0.7047
vn 0.6892 -0.1012 0.7175
vn 0.6926 -0.1017 -0.7142
vn 0.6984 -0.0611 0.7131
vn 0.7014 -0.0611 -0.7102
vn 0.7010 -0.0350 0.7123
vn 0.7037 -0.0340 -0.7097
vn 0.5668 -0.5869 0.5782
vn 0.5667 -0.5861 -0.5792
vn -0.5920 -0.5650 0.5747
vn -0.5919 -0.5646 -0.5752
vn -0.7090 0.0455 -0.7038
vn -0.7110 0.0449 0.7017
vn -0.7051 0.0665 -0.7060
vn -0.7080 0.0666 0.7030
vn -0.7049 0.0915 -0.7033
vn -0.7080 0.0919 0.7002
vn -0.6988 0.1164 -0.7058
vn -0.7016 0.1170 0.7029
vn -0.6968 0.1406 -0.7034
vn -0.6991 0.1412 0.7010
vn -0.6904 0.1771 -0.7014
vn -0.6923 0.1778 0.6994
vn -0.6790 0.2131 -0.7025
vn -0.6805 0.2141 0.7008
vn -0.6677 0.2596 -0.6977
vn -0.6678 0.2600 0.6974
vn -0.6420 0.3226 -0.6955
vn -0.6421 0.3227 0.6954
vn -0.5978 0.4102 -0.6888
vn -0.5976 0.4103 0.6889
vn -0.5230 0.5004 -0.6900
vn -0.5231 0.5004 0.6899
# 100 vertex normals

vt 0.7884 0.3598 0.0000
vt 0.7542 0.3598 0.0000
vt 0.7542 0.3374 0.0000
vt 0.7884 0.3374 0.0000
vt 0.6643 0.8618 0.0000
vt 0.6976 0.8618 0.0000
vt 0.6976 0.8817 0.0000
vt 0.6643 0.8817 0.0000
vt 0.5490 0.8618 0.0000
vt 0.6136 0.8618 0.0000
vt 0.6136 0.8817 0.0000
vt 0.5490 0.8817 0.0000
vt 0.4469 0.8618 0.0000
vt 0.5140 0.8618 0.0000
vt 0.5140 0.8817 0.0000
vt 0.4469 0.8818 0.0000
vt 0.3945 0.8817 0.0000
vt 0.3945 0.8618 0.0000
vt 0.3319 0.8817 0.0000
vt 0.3319 0.8618 0.0000
vt 0.2507 0.8818 0.0000
vt 0.2507 0.8618 0.0000
vt 0.1710 0.8818 0.0000
vt 0.1710 0.8618 0.0000
vt 0.0808 0.8817 0.0000
vt 0.0808 0.8618 0.0000
vt 0.0122 0.8817 0.0000
vt 0.0122 0.8618 0.0000
vt 0.7542 0.7622 0.0000
vt 0.7959 0.7622 0.0000
vt 0.7959 0.7816 0.0000
vt 0.7542 0.7816 0.0000
vt 0.0124 0.4135 0.0000
vt 0.0125 0.3719 0.0000
vt 0.0937 0.3686 0.0000
vt 0.0794 0.4107 0.0000
vt 0.9056 0.8690 0.0000
vt 0.9256 0.8690 0.0000
vt 0.9256 0.9524 0.0000
vt 0.9057 0.9524 0.0000
vt 0.0794 0.4398 0.0000
vt 0.0937 0.4819 0.0000
vt 0.0125 0.4786 0.0000
vt 0.0124 0.4370 0.0000
vt 0.1614 0.3637 0.0000
vt 0.1674 0.4044 0.0000
vt 0.9056 0.7995 0.0000
vt 0.9256 0.7995 0.0000
vt 0.1674 0.4461 0.0000
vt 0.1614 0.4868 0.0000
vt 0.2333 0.3558 0.0000
vt 0.2450 0.3947 0.0000
vt 0.9056 0.7256 0.0000
vt 0.9256 0.7256 0.0000
vt 0.2450 0.4558 0.0000
vt 0.2333 0.4947 0.0000
vt 0.3243 0.4678 0.0000
vt 0.2985 0.5053 0.0000
vt 0.2985 0.3452 0.0000
vt 0.3243 0.3827 0.0000
vt 0.9056 0.6586 0.0000
vt 0.9256 0.6586 0.0000
vt 0.3566 0.3342 0.0000
vt 0.3854 0.3716 0.0000
vt 0.9056 0.5990 0.0000
vt 0.9256 0.5990 0.0000
vt 0.3854 0.4789 0.0000
vt 0.3566 0.5163 0.0000
vt 0.4119 0.3203 0.0000
vt 0.4366 0.3587 0.0000
vt 0.9056 0.5422 0.0000
vt 0.9256 0.5422 0.0000
vt 0.4366 0.4918 0.0000
vt 0.4119 0.5302 0.0000
vt 0.4622 0.3051 0.0000
vt 0.5021 0.3413 0.0000
vt 0.9056 0.4905 0.0000
vt 0.9256 0.4905 0.0000
vt 0.5021 0.5092 0.0000
vt 0.4622 0.5454 0.0000
vt 0.4977 0.2916 0.0000
vt 0.5362 0.3283 0.0000
vt 0.9056 0.4541 0.0000
vt 0.9256 0.4541 0.0000
vt 0.5362 0.5222 0.0000
vt 0.4977 0.5589 0.0000
vt 0.5411 0.2708 0.0000
vt 0.5992 0.2999 0.0000
vt 0.9057 0.4095 0.0000
vt 0.9256 0.4095 0.0000
vt 0.5992 0.5506 0.0000
vt 0.5411 0.5797 0.0000
vt 0.5746 0.2509 0.0000
vt 0.9057 0.3751 0.0000
vt 0.9256 0.3751 0.0000
vt 0.5746 0.5996 0.0000
vt 0.5962 0.2352 0.0000
vt 0.6487 0.2691 0.0000
vt 0.9057 0.3529 0.0000
vt 0.9256 0.3529 0.0000
vt 0.6487 0.5814 0.0000
vt 0.5962 0.6153 0.0000
vt 0.6191 0.2131 0.0000
vt 0.6812 0.2423 0.0000
vt 0.9057 0.3294 0.0000
vt 0.9256 0.3294 0.0000
vt 0.6812 0.6082 0.0000
vt 0.6191 0.6374 0.0000
vt 0.7770 0.3833 0.0000
vt 0.7770 0.4055 0.0000
vt 0.7542 0.4055 0.0000
vt 0.7542 0.3833 0.0000
vt 0.9690 0.3504 0.0000
vt 0.9690 0.3748 0.0000
vt 0.9492 0.3748 0.0000
vt 0.9491 0.3504 0.0000
vt 0.9690 0.4156 0.0000
vt 0.9492 0.4156 0.0000
vt 0.9690 0.4455 0.0000
vt 0.9491 0.4455 0.0000
vt 0.9691 0.4797 0.0000
vt 0.9493 0.4797 0.0000
vt 0.9691 0.5345 0.0000
vt 0.9493 0.5345 0.0000
vt 0.9691 0.5861 0.0000
vt 0.9493 0.5861 0.0000
vt 0.9692 0.6447 0.0000
vt 0.9493 0.6447 0.0000
vt 0.9692 0.7155 0.0000
vt 0.9493 0.7155 0.0000
vt 0.9692 0.7996 0.0000
vt 0.9493 0.7996 0.0000
vt 0.9691 0.8789 0.0000
vt 0.9493 0.8789 0.0000
vt 0.9690 0.9524 0.0000
vt 0.9491 0.9524 0.0000
vt 0.9056 0.3059 0.0000
vt 0.9056 0.2646 0.0000
vt 0.9251 0.2646 0.0000
vt 0.9251 0.3059 0.0000
vt 0.0122 0.0536 0.0000
vt 0.0123 0.0122 0.0000
vt 0.0854 0.0154 0.0000
vt 0.0841 0.0558 0.0000
vt 0.0122 0.9053 0.0000
vt 0.0871 0.9052 0.0000
vt 0.0871 0.9251 0.0000
vt 0.0122 0.9252 0.0000
vt 0.0841 0.7946 0.0000
vt 0.0854 0.8350 0.0000
vt 0.0123 0.8383 0.0000
vt 0.0122 0.7969 0.0000
vt 0.1633 0.0219 0.0000
vt 0.1617 0.0611 0.0000
vt 0.1669 0.9052 0.0000
vt 0.1669 0.9251 0.0000
vt 0.1617 0.7894 0.0000
vt 0.1633 0.8286 0.0000
vt 0.2466 0.0307 0.0000
vt 0.2440 0.0699 0.0000
vt 0.2522 0.9052 0.0000
vt 0.2522 0.9251 0.0000
vt 0.2440 0.7806 0.0000
vt 0.2466 0.8198 0.0000
vt 0.3199 0.0420 0.0000
vt 0.3132 0.0828 0.0000
vt 0.3273 0.9052 0.0000
vt 0.3273 0.9251 0.0000
vt 0.3132 0.7677 0.0000
vt 0.3199 0.8085 0.0000
vt 0.3793 0.0526 0.0000
vt 0.3706 0.0930 0.0000
vt 0.3882 0.9052 0.0000
vt 0.3882 0.9251 0.0000
vt 0.3706 0.7575 0.0000
vt 0.3793 0.7979 0.0000
vt 0.4312 0.0643 0.0000
vt 0.4211 0.1067 0.0000
vt 0.4413 0.9052 0.0000
vt 0.4413 0.9251 0.0000
vt 0.4211 0.7438 0.0000
vt 0.4312 0.7862 0.0000
vt 0.4927 0.0820 0.0000
vt 0.4747 0.1239 0.0000
vt 0.5043 0.9052 0.0000
vt 0.5043 0.9251 0.0000
vt 0.4747 0.7266 0.0000
vt 0.4927 0.7684 0.0000
vt 0.5259 0.0934 0.0000
vt 0.5082 0.1374 0.0000
vt 0.5383 0.9052 0.0000
vt 0.5383 0.9251 0.0000
vt 0.5082 0.7131 0.0000
vt 0.5259 0.7571 0.0000
vt 0.5883 0.1207 0.0000
vt 0.5774 0.1760 0.0000
vt 0.5375 0.1515 0.0000
vt 0.6022 0.9052 0.0000
vt 0.6022 0.9251 0.0000
vt 0.5375 0.6990 0.0000
vt 0.5774 0.6745 0.0000
vt 0.5883 0.7298 0.0000
vt 0.6410 0.1507 0.0000
vt 0.6012 0.1941 0.0000
vt 0.6562 0.9052 0.0000
vt 0.6562 0.9251 0.0000
vt 0.6012 0.6564 0.0000
vt 0.6410 0.6997 0.0000
vt 0.6785 0.1814 0.0000
vt 0.6947 0.9053 0.0000
vt 0.6947 0.9252 0.0000
vt 0.7064 0.2126 0.0000
vt 0.8243 0.3374 0.0000
vt 0.8243 0.3598 0.0000
vt 0.6785 0.6691 0.0000
vt 0.7064 0.6379 0.0000
# 216 texture coords

g default
usemtl wire_134110008
s 1
f 1/1/1 2/2/2 3/3/3 4/4/4 
f 5/5/5 3/6/3 2/7/2 6/8/6 
f 7/9/7 8/10/8 9/11/9 10/12/10 
f 6/8/6 9/11/9 8/10/8 5/5/5 
f 11/13/11 12/14/12 13/15/13 14/16/14 
f 10/12/10 13/15/13 12/14/12 7/9/7 
f 14/16/14 15/17/15 16/18/16 11/13/11 
f 15/17/15 17/19/17 18/20/18 16/18/16 
f 17/19/17 19/21/19 20/22/20 18/20/18 
f 19/21/19 21/23/21 22/24/22 20/22/20 
f 21/23/21 23/25/23 24/26/24 22/24/22 
f 23/25/23 25/27/25 26/28/26 24/26/24 
f 25/29/25 27/30/27 28/31/28 26/32/26 
f 26/33/26 28/34/28 29/35/29 24/36/24 
f 30/37/30 29/38/29 28/39/28 27/40/27 
f 23/41/23 30/42/30 27/43/27 25/44/25 
f 29/35/29 31/45/31 22/46/22 24/36/24 
f 30/37/30 32/47/32 31/48/31 29/38/29 
f 23/41/23 21/49/21 32/50/32 30/42/30 
f 31/45/31 33/51/33 20/52/20 22/46/22 
f 32/47/32 34/53/34 33/54/33 31/48/31 
f 21/49/21 19/55/19 34/56/34 32/50/32 
f 19/55/19 17/57/17 35/58/35 34/56/34 
f 33/51/33 36/59/36 18/60/18 20/52/20 
f 34/53/34 35/61/35 36/62/36 33/54/33 
f 36/59/36 37/63/37 16/64/16 18/60/18 
f 35/61/35 38/65/38 37/66/37 36/62/36 
f 17/57/17 15/67/15 38/68/38 35/58/35 
f 37/63/37 39/69/39 11/70/11 16/64/16 
f 38/65/38 40/71/40 39/72/39 37/66/37 
f 15/67/15 14/73/14 40/74/40 38/68/38 
f 39/69/39 41/75/41 12/76/12 11/70/11 
f 40/71/40 42/77/42 41/78/41 39/72/39 
f 14/73/14 13/79/13 42/80/42 40/74/40 
f 41/75/41 43/81/43 7/82/7 12/76/12 
f 42/77/42 44/83/44 43/84/43 41/78/41 
f 13/79/13 10/85/10 44/86/44 42/80/42 
f 7/82/7 43/81/43 45/87/45 8/88/8 
f 44/83/44 46/89/46 45/90/45 43/84/43 
f 9/91/9 46/92/46 44/86/44 10/85/10 
f 8/88/8 45/87/45 47/93/47 
f 46/89/46 48/94/48 47/95/47 45/90/45 
f 48/96/48 46/92/46 9/91/9 
f 47/93/47 49/97/49 5/98/5 8/88/8 
f 48/94/48 50/99/50 49/100/49 47/95/47 
f 9/91/9 6/101/6 50/102/50 48/96/48 
f 5/98/5 49/97/49 51/103/51 3/104/3 
f 50/99/50 52/105/52 51/106/51 49/100/49 
f 2/107/2 52/108/52 50/102/50 6/101/6 
f 52/109/52 53/110/53 54/111/54 51/112/51 
f 53/113/53 55/114/55 56/115/56 54/116/54 
f 55/114/55 57/117/57 58/118/58 56/115/56 
f 57/117/57 59/119/59 60/120/60 58/118/58 
f 59/119/59 61/121/61 62/122/62 60/120/60 
f 61/121/61 63/123/63 64/124/64 62/122/62 
f 63/123/63 65/125/65 66/126/66 64/124/64 
f 65/125/65 67/127/67 68/128/68 66/126/66 
f 67/127/67 69/129/69 70/130/70 68/128/68 
f 69/129/69 71/131/71 72/132/72 70/130/70 
f 71/131/71 73/133/73 74/134/74 72/132/72 
f 73/133/73 75/135/75 76/136/76 74/134/74 
f 75/137/75 77/138/77 78/139/78 76/140/76 
f 76/141/76 78/142/78 79/143/79 74/144/74 
f 77/145/77 80/146/80 79/147/79 78/148/78 
f 73/149/73 80/150/80 77/151/77 75/152/75 
f 74/144/74 79/143/79 81/153/81 72/154/72 
f 80/146/80 82/155/82 81/156/81 79/147/79 
f 71/157/71 82/158/82 80/150/80 73/149/73 
f 81/153/81 83/159/83 70/160/70 72/154/72 
f 82/155/82 84/161/84 83/162/83 81/156/81 
f 71/157/71 69/163/69 84/164/84 82/158/82 
f 83/159/83 85/165/85 68/166/68 70/160/70 
f 84/161/84 86/167/86 85/168/85 83/162/83 
f 69/163/69 67/169/67 86/170/86 84/164/84 
f 85/165/85 87/171/87 66/172/66 68/166/68 
f 86/167/86 88/173/88 87/174/87 85/168/85 
f 67/169/67 65/175/65 88/176/88 86/170/86 
f 87/171/87 89/177/89 64/178/64 66/172/66 
f 88/173/88 90/179/90 89/180/89 87/174/87 
f 65/175/65 63/181/63 90/182/90 88/176/88 
f 89/177/89 91/183/91 62/184/62 64/178/64 
f 90/179/90 92/185/92 91/186/91 89/180/89 
f 63/181/63 61/187/61 92/188/92 90/182/90 
f 91/183/91 93/189/93 60/190/60 62/184/62 
f 92/185/92 94/191/94 93/192/93 91/186/91 
f 61/187/61 59/193/59 94/194/94 92/188/92 
f 95/195/95 56/196/56 58/197/58 
f 60/190/60 93/189/93 95/195/95 58/197/58 
f 94/191/94 96/198/96 95/199/95 93/192/93 
f 57/200/57 55/201/55 96/202/96 
f 57/200/57 96/202/96 94/194/94 59/193/59 
f 56/196/56 95/195/95 97/203/97 54/204/54 
f 96/198/96 98/205/98 97/206/97 95/199/95 
f 53/207/53 98/208/98 96/202/96 55/201/55 
f 97/203/97 99/209/99 51/103/51 54/204/54 
f 98/205/98 100/210/100 99/211/99 97/206/97 
f 51/103/51 99/209/99 4/212/4 3/104/3 
f 4/4/4 99/213/99 100/214/100 1/1/1 
f 53/207/53 52/108/52 100/215/100 98/208/98 
f 2/107/2 1/216/1 100/215/100 52/108/52 
# 96 polygons - 4 triangles

